
<svg viewBox="0 0 310 310" xmlns="http://www.w3.org/2000/svg">
<rect width="100%" height="100%" fill="white" />
    <circle cx="187" cy="101" r="0.5" fill="red"/><circle cx="154" cy="54" r="0.5" fill="red"/><circle cx="224" cy="187" r="0.5" fill="red"/><circle cx="260" cy="272" r="0.5" fill="red"/><circle cx="83" cy="213" r="0.5" fill="red"/><circle cx="253" cy="52" r="0.5" fill="red"/><circle cx="135" cy="217" r="0.5" fill="red"/><circle cx="172" cy="152" r="0.5" fill="red"/>
    <line x1="187" y1="101" x2="224" y2="187" style="stroke:chartreuse;stroke-width:0.25" /><line x1="253" y1="52" x2="154" y2="54" style="stroke:chartreuse;stroke-width:0.25" /><line x1="187" y1="101" x2="253" y2="52" style="stroke:chartreuse;stroke-width:0.25" /><line x1="187" y1="101" x2="154" y2="54" style="stroke:chartreuse;stroke-width:0.25" /><line x1="172" y1="152" x2="187" y2="101" style="stroke:chartreuse;stroke-width:0.25" /><line x1="224" y1="187" x2="172" y2="152" style="stroke:chartreuse;stroke-width:0.25" /><line x1="135" y1="217" x2="172" y2="152" style="stroke:chartreuse;stroke-width:0.25" /><line x1="224" y1="187" x2="135" y2="217" style="stroke:chartreuse;stroke-width:0.25" /><line x1="224" y1="187" x2="260" y2="272" style="stroke:chartreuse;stroke-width:0.25" /><line x1="260" y1="272" x2="253" y2="52" style="stroke:chartreuse;stroke-width:0.25" /><line x1="253" y1="52" x2="224" y2="187" style="stroke:chartreuse;stroke-width:0.25" /><line x1="154" y1="54" x2="83" y2="213" style="stroke:chartreuse;stroke-width:0.25" /><line x1="83" y1="213" x2="172" y2="152" style="stroke:chartreuse;stroke-width:0.25" /><line x1="172" y1="152" x2="154" y2="54" style="stroke:chartreuse;stroke-width:0.25" /><line x1="135" y1="217" x2="83" y2="213" style="stroke:chartreuse;stroke-width:0.25" /><line x1="83" y1="213" x2="260" y2="272" style="stroke:chartreuse;stroke-width:0.25" /><line x1="260" y1="272" x2="135" y2="217" style="stroke:chartreuse;stroke-width:0.25" />
</svg>